<mxfile host="65bd71144e">
    <diagram id="ZWDzlj5z1i2_J6VK3N6_" name="第 1 页">
        <mxGraphModel dx="3790" dy="3198" grid="1" gridSize="10" guides="1" tooltips="1" connect="1" arrows="1" fold="1" page="1" pageScale="1" pageWidth="827" pageHeight="1169" math="0" shadow="0">
            <root>
                <mxCell id="0"/>
                <mxCell id="1" parent="0"/>
                <mxCell id="118" style="edgeStyle=none;html=1;exitX=0.5;exitY=0;exitDx=0;exitDy=0;entryX=0;entryY=0.5;entryDx=0;entryDy=0;" edge="1" parent="1" source="125" target="139">
                    <mxGeometry relative="1" as="geometry">
                        <Array as="points">
                            <mxPoint x="-140" y="410"/>
                            <mxPoint x="-140" y="655"/>
                            <mxPoint x="-630" y="655"/>
                            <mxPoint x="-630" y="410"/>
                        </Array>
                    </mxGeometry>
                </mxCell>
                <mxCell id="119" style="edgeStyle=none;html=1;exitX=0.25;exitY=1;exitDx=0;exitDy=0;entryX=0.115;entryY=0.979;entryDx=0;entryDy=0;entryPerimeter=0;" edge="1" parent="1" source="125" target="143">
                    <mxGeometry relative="1" as="geometry"/>
                </mxCell>
                <mxCell id="120" style="edgeStyle=none;html=1;exitX=0.25;exitY=1;exitDx=0;exitDy=0;entryX=0.25;entryY=1;entryDx=0;entryDy=0;" edge="1" parent="1" source="125" target="143">
                    <mxGeometry relative="1" as="geometry"/>
                </mxCell>
                <mxCell id="121" style="edgeStyle=none;html=1;exitX=0.25;exitY=1;exitDx=0;exitDy=0;entryX=0.174;entryY=1.073;entryDx=0;entryDy=0;entryPerimeter=0;" edge="1" parent="1" source="125" target="143">
                    <mxGeometry relative="1" as="geometry"/>
                </mxCell>
                <mxCell id="122" style="edgeStyle=none;html=1;exitX=0.25;exitY=1;exitDx=0;exitDy=0;entryX=0.25;entryY=1;entryDx=0;entryDy=0;" edge="1" parent="1" source="125" target="141">
                    <mxGeometry relative="1" as="geometry">
                        <Array as="points">
                            <mxPoint x="-320" y="355"/>
                        </Array>
                    </mxGeometry>
                </mxCell>
                <mxCell id="123" style="edgeStyle=none;html=1;exitX=0.5;exitY=0;exitDx=0;exitDy=0;entryX=0.5;entryY=1;entryDx=0;entryDy=0;" edge="1" parent="1" source="125" target="176">
                    <mxGeometry relative="1" as="geometry"/>
                </mxCell>
                <mxCell id="124" style="edgeStyle=none;html=1;exitX=1;exitY=0.25;exitDx=0;exitDy=0;entryX=1;entryY=0.5;entryDx=0;entryDy=0;" edge="1" parent="1" source="125" target="141">
                    <mxGeometry relative="1" as="geometry"/>
                </mxCell>
                <mxCell id="125" value="fetch" style="rounded=0;whiteSpace=wrap;html=1;direction=south;" vertex="1" parent="1">
                    <mxGeometry x="-425" y="325" width="250" height="170" as="geometry"/>
                </mxCell>
                <mxCell id="126" style="edgeStyle=none;html=1;exitX=0.75;exitY=0;exitDx=0;exitDy=0;entryX=0.71;entryY=1.012;entryDx=0;entryDy=0;entryPerimeter=0;" edge="1" parent="1" source="129" target="147">
                    <mxGeometry relative="1" as="geometry"/>
                </mxCell>
                <mxCell id="127" style="edgeStyle=none;html=1;exitX=1;exitY=0.5;exitDx=0;exitDy=0;entryX=0.5;entryY=1;entryDx=0;entryDy=0;" edge="1" parent="1" source="129" target="194">
                    <mxGeometry relative="1" as="geometry"/>
                </mxCell>
                <mxCell id="128" style="edgeStyle=none;html=1;exitX=0;exitY=0.75;exitDx=0;exitDy=0;entryX=0.865;entryY=0.997;entryDx=0;entryDy=0;entryPerimeter=0;" edge="1" parent="1" source="129" target="198">
                    <mxGeometry relative="1" as="geometry"/>
                </mxCell>
                <mxCell id="297" style="edgeStyle=none;html=1;exitX=0.5;exitY=1;exitDx=0;exitDy=0;entryX=0.431;entryY=0.011;entryDx=0;entryDy=0;entryPerimeter=0;" edge="1" parent="1" source="129" target="172">
                    <mxGeometry relative="1" as="geometry"/>
                </mxCell>
                <mxCell id="129" value="memory" style="whiteSpace=wrap;html=1;aspect=fixed;" vertex="1" parent="1">
                    <mxGeometry x="1310" y="270.01" width="280" height="280" as="geometry"/>
                </mxCell>
                <mxCell id="130" style="edgeStyle=none;html=1;exitX=1.004;exitY=0.054;exitDx=0;exitDy=0;entryX=1;entryY=0.5;entryDx=0;entryDy=0;exitPerimeter=0;" edge="1" parent="1" source="132" target="125">
                    <mxGeometry relative="1" as="geometry">
                        <mxPoint x="510" y="765" as="targetPoint"/>
                        <Array as="points">
                            <mxPoint x="1008" y="775"/>
                            <mxPoint x="-300" y="775"/>
                        </Array>
                    </mxGeometry>
                </mxCell>
                <mxCell id="131" style="edgeStyle=none;html=1;exitX=0.5;exitY=0;exitDx=0;exitDy=0;entryX=0.5;entryY=1;entryDx=0;entryDy=0;" edge="1" parent="1" source="132" target="191">
                    <mxGeometry relative="1" as="geometry"/>
                </mxCell>
                <mxCell id="132" value="exeucte" style="rounded=0;whiteSpace=wrap;html=1;direction=south;" vertex="1" parent="1">
                    <mxGeometry x="620" y="147.52" width="410" height="524.99" as="geometry"/>
                </mxCell>
                <mxCell id="133" style="edgeStyle=none;html=1;exitX=0.25;exitY=1;exitDx=0;exitDy=0;entryX=0.5;entryY=1;entryDx=0;entryDy=0;" edge="1" parent="1" source="136" target="149">
                    <mxGeometry relative="1" as="geometry"/>
                </mxCell>
                <mxCell id="134" style="edgeStyle=none;html=1;exitX=0.5;exitY=1;exitDx=0;exitDy=0;entryX=0.5;entryY=0;entryDx=0;entryDy=0;" edge="1" parent="1" source="136" target="151">
                    <mxGeometry relative="1" as="geometry">
                        <Array as="points">
                            <mxPoint x="170" y="445"/>
                        </Array>
                    </mxGeometry>
                </mxCell>
                <mxCell id="135" style="edgeStyle=none;html=1;exitX=0.02;exitY=0.614;exitDx=0;exitDy=0;exitPerimeter=0;" edge="1" parent="1" source="136">
                    <mxGeometry relative="1" as="geometry">
                        <mxPoint x="215" y="185" as="sourcePoint"/>
                        <mxPoint x="219" y="90" as="targetPoint"/>
                    </mxGeometry>
                </mxCell>
                <mxCell id="136" value="decode" style="rounded=0;whiteSpace=wrap;html=1;direction=south;" vertex="1" parent="1">
                    <mxGeometry x="80" y="160.01" width="360" height="500" as="geometry"/>
                </mxCell>
                <mxCell id="137" style="edgeStyle=none;html=1;exitX=0.5;exitY=0;exitDx=0;exitDy=0;entryX=0;entryY=0.5;entryDx=0;entryDy=0;" edge="1" parent="1" source="139" target="145">
                    <mxGeometry relative="1" as="geometry">
                        <Array as="points">
                            <mxPoint x="-520" y="139"/>
                        </Array>
                    </mxGeometry>
                </mxCell>
                <mxCell id="138" style="edgeStyle=none;html=1;exitX=1;exitY=0.5;exitDx=0;exitDy=0;entryX=0.5;entryY=1;entryDx=0;entryDy=0;" edge="1" parent="1" source="139" target="125">
                    <mxGeometry relative="1" as="geometry"/>
                </mxCell>
                <mxCell id="139" value="pc" style="whiteSpace=wrap;html=1;aspect=fixed;" vertex="1" parent="1">
                    <mxGeometry x="-560" y="370" width="80" height="80" as="geometry"/>
                </mxCell>
                <mxCell id="140" style="edgeStyle=none;html=1;exitX=0.5;exitY=0;exitDx=0;exitDy=0;" edge="1" parent="1" source="141" target="125">
                    <mxGeometry relative="1" as="geometry"/>
                </mxCell>
                <mxCell id="141" value="pcselect" style="shape=trapezoid;perimeter=trapezoidPerimeter;whiteSpace=wrap;html=1;fixedSize=1;direction=south;" vertex="1" parent="1">
                    <mxGeometry x="-270" y="357.82" width="60" height="104.37" as="geometry"/>
                </mxCell>
                <mxCell id="142" style="edgeStyle=none;html=1;exitX=0.357;exitY=-0.015;exitDx=0;exitDy=0;entryX=0.25;entryY=1;entryDx=0;entryDy=0;exitPerimeter=0;" edge="1" parent="1" source="143" target="141">
                    <mxGeometry relative="1" as="geometry"/>
                </mxCell>
                <mxCell id="143" value="adder" style="shape=trapezoid;perimeter=trapezoidPerimeter;whiteSpace=wrap;html=1;fixedSize=1;direction=south;" vertex="1" parent="1">
                    <mxGeometry x="-390" y="342.19" width="50" height="120" as="geometry"/>
                </mxCell>
                <mxCell id="144" style="edgeStyle=none;html=1;exitX=0.5;exitY=1;exitDx=0;exitDy=0;entryX=0;entryY=0.75;entryDx=0;entryDy=0;" edge="1" parent="1" source="145" target="125">
                    <mxGeometry relative="1" as="geometry"/>
                </mxCell>
                <mxCell id="145" value="instruction memory" style="rounded=0;whiteSpace=wrap;html=1;" vertex="1" parent="1">
                    <mxGeometry x="-470" y="99.38" width="220" height="80" as="geometry"/>
                </mxCell>
                <mxCell id="146" style="edgeStyle=none;html=1;exitX=0.25;exitY=1;exitDx=0;exitDy=0;entryX=0.212;entryY=0.007;entryDx=0;entryDy=0;entryPerimeter=0;" edge="1" parent="1" source="147" target="129">
                    <mxGeometry relative="1" as="geometry"/>
                </mxCell>
                <mxCell id="147" value="data memory" style="rounded=0;whiteSpace=wrap;html=1;" vertex="1" parent="1">
                    <mxGeometry x="1285" y="49.379999999999995" width="330" height="130" as="geometry"/>
                </mxCell>
                <mxCell id="148" style="edgeStyle=none;html=1;exitX=0.5;exitY=0;exitDx=0;exitDy=0;entryX=0.25;entryY=0;entryDx=0;entryDy=0;" edge="1" parent="1" source="149" target="136">
                    <mxGeometry relative="1" as="geometry"/>
                </mxCell>
                <mxCell id="149" value="decoder" style="rounded=0;whiteSpace=wrap;html=1;direction=south;" vertex="1" parent="1">
                    <mxGeometry x="178.75" y="188.59" width="152.5" height="190" as="geometry"/>
                </mxCell>
                <mxCell id="150" style="edgeStyle=none;html=1;exitX=1;exitY=0.5;exitDx=0;exitDy=0;entryX=0.25;entryY=1;entryDx=0;entryDy=0;" edge="1" parent="1" source="151" target="153">
                    <mxGeometry relative="1" as="geometry"/>
                </mxCell>
                <mxCell id="151" value="extend" style="ellipse;whiteSpace=wrap;html=1;" vertex="1" parent="1">
                    <mxGeometry x="100" y="473.01" width="120" height="62" as="geometry"/>
                </mxCell>
                <mxCell id="152" style="edgeStyle=none;html=1;exitX=0.5;exitY=0;exitDx=0;exitDy=0;entryX=0.781;entryY=-0.009;entryDx=0;entryDy=0;entryPerimeter=0;" edge="1" parent="1" source="153" target="136">
                    <mxGeometry relative="1" as="geometry"/>
                </mxCell>
                <mxCell id="153" value="src confirm" style="shape=trapezoid;perimeter=trapezoidPerimeter;whiteSpace=wrap;html=1;fixedSize=1;direction=south;" vertex="1" parent="1">
                    <mxGeometry x="300" y="462.19" width="90" height="180" as="geometry"/>
                </mxCell>
                <mxCell id="154" style="edgeStyle=none;html=1;exitX=0.25;exitY=1;exitDx=0;exitDy=0;" edge="1" parent="1" source="155">
                    <mxGeometry relative="1" as="geometry">
                        <mxPoint x="148" y="160" as="targetPoint"/>
                    </mxGeometry>
                </mxCell>
                <mxCell id="155" value="regfile" style="rounded=0;whiteSpace=wrap;html=1;" vertex="1" parent="1">
                    <mxGeometry x="80" y="14.379999999999999" width="270" height="85" as="geometry"/>
                </mxCell>
                <mxCell id="156" style="edgeStyle=none;html=1;exitX=0.5;exitY=0;exitDx=0;exitDy=0;entryX=0.25;entryY=0;entryDx=0;entryDy=0;" edge="1" parent="1" source="157" target="132">
                    <mxGeometry relative="1" as="geometry"/>
                </mxCell>
                <mxCell id="157" value="ALU" style="shape=trapezoid;perimeter=trapezoidPerimeter;whiteSpace=wrap;html=1;fixedSize=1;direction=south;" vertex="1" parent="1">
                    <mxGeometry x="870" y="205" width="60" height="157.18" as="geometry"/>
                </mxCell>
                <mxCell id="158" style="edgeStyle=none;html=1;exitX=0.5;exitY=0;exitDx=0;exitDy=0;entryX=1;entryY=0.052;entryDx=0;entryDy=0;entryPerimeter=0;" edge="1" parent="1" source="159" target="132">
                    <mxGeometry relative="1" as="geometry">
                        <mxPoint x="1010" y="665" as="targetPoint"/>
                        <Array as="points">
                            <mxPoint x="1009" y="570"/>
                        </Array>
                    </mxGeometry>
                </mxCell>
                <mxCell id="159" value="pc branch" style="shape=trapezoid;perimeter=trapezoidPerimeter;whiteSpace=wrap;html=1;fixedSize=1;direction=south;" vertex="1" parent="1">
                    <mxGeometry x="860" y="484.5" width="80" height="170" as="geometry"/>
                </mxCell>
                <mxCell id="160" style="edgeStyle=none;html=1;exitX=0.5;exitY=0;exitDx=0;exitDy=0;entryX=0.5;entryY=0;entryDx=0;entryDy=0;" edge="1" parent="1" source="162" target="155">
                    <mxGeometry relative="1" as="geometry">
                        <mxPoint x="1360" y="15" as="targetPoint"/>
                        <Array as="points">
                            <mxPoint x="1973" y="-95"/>
                            <mxPoint x="215" y="-95"/>
                        </Array>
                    </mxGeometry>
                </mxCell>
                <mxCell id="161" style="edgeStyle=none;html=1;exitX=0.5;exitY=1;exitDx=0;exitDy=0;" edge="1" parent="1" source="162" target="174">
                    <mxGeometry relative="1" as="geometry"/>
                </mxCell>
                <mxCell id="162" value="writeback" style="whiteSpace=wrap;html=1;aspect=fixed;" vertex="1" parent="1">
                    <mxGeometry x="1912.5" y="350.01" width="120" height="120" as="geometry"/>
                </mxCell>
                <mxCell id="163" style="edgeStyle=none;html=1;exitX=0.5;exitY=1;exitDx=0;exitDy=0;entryX=0.143;entryY=0.008;entryDx=0;entryDy=0;entryPerimeter=0;" edge="1" parent="1" source="164" target="172">
                    <mxGeometry relative="1" as="geometry"/>
                </mxCell>
                <mxCell id="164" value="forward1" style="ellipse;whiteSpace=wrap;html=1;" vertex="1" parent="1">
                    <mxGeometry x="1070" y="795" width="120" height="80" as="geometry"/>
                </mxCell>
                <mxCell id="165" style="edgeStyle=none;html=1;exitX=0.5;exitY=1;exitDx=0;exitDy=0;entryX=0.714;entryY=-0.004;entryDx=0;entryDy=0;entryPerimeter=0;" edge="1" parent="1" source="166" target="172">
                    <mxGeometry relative="1" as="geometry"/>
                </mxCell>
                <mxCell id="166" value="forward2" style="ellipse;whiteSpace=wrap;html=1;" vertex="1" parent="1">
                    <mxGeometry x="1710" y="795" width="120" height="80" as="geometry"/>
                </mxCell>
                <mxCell id="167" style="edgeStyle=none;html=1;exitX=0.5;exitY=1;exitDx=0;exitDy=0;entryX=0.928;entryY=-0.004;entryDx=0;entryDy=0;entryPerimeter=0;" edge="1" parent="1" source="168" target="172">
                    <mxGeometry relative="1" as="geometry"/>
                </mxCell>
                <mxCell id="168" value="forward3" style="ellipse;whiteSpace=wrap;html=1;" vertex="1" parent="1">
                    <mxGeometry x="1950" y="795" width="120" height="80" as="geometry"/>
                </mxCell>
                <mxCell id="169" style="edgeStyle=none;html=1;exitX=0;exitY=0.5;exitDx=0;exitDy=0;entryX=1;entryY=0.75;entryDx=0;entryDy=0;" edge="1" parent="1" source="172" target="132">
                    <mxGeometry relative="1" as="geometry">
                        <Array as="points">
                            <mxPoint x="723" y="1180"/>
                        </Array>
                    </mxGeometry>
                </mxCell>
                <mxCell id="170" style="edgeStyle=none;html=1;exitX=0;exitY=0.5;exitDx=0;exitDy=0;entryX=1;entryY=0.5;entryDx=0;entryDy=0;" edge="1" parent="1" source="172" target="176">
                    <mxGeometry relative="1" as="geometry">
                        <mxPoint x="150" y="1025" as="targetPoint"/>
                        <Array as="points">
                            <mxPoint x="-70" y="1180"/>
                        </Array>
                    </mxGeometry>
                </mxCell>
                <mxCell id="171" style="edgeStyle=none;html=1;exitX=0;exitY=0.5;exitDx=0;exitDy=0;entryX=0.5;entryY=1;entryDx=0;entryDy=0;" edge="1" parent="1" source="172" target="139">
                    <mxGeometry relative="1" as="geometry">
                        <mxPoint x="-200" y="1005" as="targetPoint"/>
                        <Array as="points">
                            <mxPoint x="-520" y="1180"/>
                        </Array>
                    </mxGeometry>
                </mxCell>
                <mxCell id="216" style="edgeStyle=none;html=1;exitX=0;exitY=0.5;exitDx=0;exitDy=0;entryX=1;entryY=0.5;entryDx=0;entryDy=0;" edge="1" parent="1" source="172" target="182">
                    <mxGeometry relative="1" as="geometry">
                        <Array as="points">
                            <mxPoint x="530" y="1180"/>
                        </Array>
                    </mxGeometry>
                </mxCell>
                <mxCell id="217" style="edgeStyle=none;html=1;exitX=0;exitY=0.5;exitDx=0;exitDy=0;entryX=1;entryY=0.5;entryDx=0;entryDy=0;" edge="1" parent="1" source="172" target="191">
                    <mxGeometry relative="1" as="geometry">
                        <Array as="points">
                            <mxPoint x="890" y="1180"/>
                            <mxPoint x="890" y="840"/>
                            <mxPoint x="1040" y="840"/>
                            <mxPoint x="1040" y="730"/>
                            <mxPoint x="1130" y="730"/>
                        </Array>
                    </mxGeometry>
                </mxCell>
                <mxCell id="172" value="hazard" style="rounded=0;whiteSpace=wrap;html=1;" vertex="1" parent="1">
                    <mxGeometry x="967.5" y="1095" width="1125" height="170" as="geometry"/>
                </mxCell>
                <mxCell id="173" style="edgeStyle=none;html=1;exitX=1;exitY=0.5;exitDx=0;exitDy=0;entryX=1;entryY=0.5;entryDx=0;entryDy=0;" edge="1" parent="1" source="174" target="168">
                    <mxGeometry relative="1" as="geometry">
                        <Array as="points">
                            <mxPoint x="2110" y="635"/>
                            <mxPoint x="2110" y="835"/>
                        </Array>
                    </mxGeometry>
                </mxCell>
                <mxCell id="174" value="writeback&lt;br&gt;reg" style="whiteSpace=wrap;html=1;aspect=fixed;" vertex="1" parent="1">
                    <mxGeometry x="1932.5" y="595" width="80" height="80" as="geometry"/>
                </mxCell>
                <mxCell id="175" style="edgeStyle=none;html=1;exitX=0.5;exitY=0;exitDx=0;exitDy=0;entryX=0.5;entryY=1;entryDx=0;entryDy=0;" edge="1" parent="1" source="176" target="136">
                    <mxGeometry relative="1" as="geometry"/>
                </mxCell>
                <mxCell id="176" value="fetch&lt;br&gt;_&lt;br&gt;decode" style="rounded=0;whiteSpace=wrap;html=1;direction=south;" vertex="1" parent="1">
                    <mxGeometry x="-110" y="285" width="80" height="250" as="geometry"/>
                </mxCell>
                <mxCell id="177" value="" style="endArrow=classic;html=1;exitX=0.299;exitY=1.002;exitDx=0;exitDy=0;exitPerimeter=0;entryX=0.25;entryY=1;entryDx=0;entryDy=0;" edge="1" parent="1" source="125" target="143">
                    <mxGeometry width="50" height="50" relative="1" as="geometry">
                        <mxPoint x="-280" y="515" as="sourcePoint"/>
                        <mxPoint x="-230" y="465" as="targetPoint"/>
                    </mxGeometry>
                </mxCell>
                <mxCell id="178" value="" style="endArrow=classic;html=1;exitX=0.236;exitY=1.008;exitDx=0;exitDy=0;exitPerimeter=0;" edge="1" parent="1" source="136" target="149">
                    <mxGeometry width="50" height="50" relative="1" as="geometry">
                        <mxPoint x="150" y="405" as="sourcePoint"/>
                        <mxPoint x="200" y="355" as="targetPoint"/>
                    </mxGeometry>
                </mxCell>
                <mxCell id="179" value="" style="endArrow=classic;html=1;entryX=0.5;entryY=0;entryDx=0;entryDy=0;" edge="1" parent="1" target="151">
                    <mxGeometry width="50" height="50" relative="1" as="geometry">
                        <mxPoint x="80" y="445" as="sourcePoint"/>
                        <mxPoint x="130" y="355" as="targetPoint"/>
                        <Array as="points">
                            <mxPoint x="160" y="445"/>
                        </Array>
                    </mxGeometry>
                </mxCell>
                <mxCell id="180" value="" style="endArrow=classic;html=1;exitX=0.872;exitY=0.997;exitDx=0;exitDy=0;exitPerimeter=0;entryX=0.75;entryY=1;entryDx=0;entryDy=0;" edge="1" parent="1" source="136" target="153">
                    <mxGeometry width="50" height="50" relative="1" as="geometry">
                        <mxPoint x="360" y="405" as="sourcePoint"/>
                        <mxPoint x="410" y="355" as="targetPoint"/>
                    </mxGeometry>
                </mxCell>
                <mxCell id="181" style="edgeStyle=none;html=1;exitX=0.5;exitY=0;exitDx=0;exitDy=0;entryX=0.5;entryY=1;entryDx=0;entryDy=0;" edge="1" parent="1" source="182" target="132">
                    <mxGeometry relative="1" as="geometry"/>
                </mxCell>
                <mxCell id="290" style="edgeStyle=none;html=1;exitX=0.75;exitY=0;exitDx=0;exitDy=0;entryX=0.25;entryY=0;entryDx=0;entryDy=0;" edge="1" parent="1" source="182" target="172">
                    <mxGeometry relative="1" as="geometry">
                        <mxPoint x="1180" y="1051.269996279762" as="targetPoint"/>
                        <Array as="points">
                            <mxPoint x="600" y="518"/>
                            <mxPoint x="600" y="1000"/>
                            <mxPoint x="1249" y="1000"/>
                        </Array>
                    </mxGeometry>
                </mxCell>
                <mxCell id="182" value="decode&lt;br&gt;_&lt;br&gt;exeucte" style="rounded=0;whiteSpace=wrap;html=1;direction=south;" vertex="1" parent="1">
                    <mxGeometry x="490" y="195.02" width="80" height="430" as="geometry"/>
                </mxCell>
                <mxCell id="183" value="" style="endArrow=classic;html=1;exitX=0.5;exitY=0;exitDx=0;exitDy=0;entryX=0.5;entryY=1;entryDx=0;entryDy=0;" edge="1" parent="1" source="136" target="182">
                    <mxGeometry width="50" height="50" relative="1" as="geometry">
                        <mxPoint x="390" y="405" as="sourcePoint"/>
                        <mxPoint x="440" y="355" as="targetPoint"/>
                    </mxGeometry>
                </mxCell>
                <mxCell id="184" value="" style="endArrow=classic;html=1;exitX=0.042;exitY=0.997;exitDx=0;exitDy=0;exitPerimeter=0;entryX=0;entryY=0.5;entryDx=0;entryDy=0;" edge="1" parent="1" source="132" target="157">
                    <mxGeometry width="50" height="50" relative="1" as="geometry">
                        <mxPoint x="940" y="505" as="sourcePoint"/>
                        <mxPoint x="990" y="455" as="targetPoint"/>
                        <Array as="points">
                            <mxPoint x="900" y="170"/>
                        </Array>
                    </mxGeometry>
                </mxCell>
                <mxCell id="185" value="" style="endArrow=classic;html=1;exitX=0.5;exitY=0;exitDx=0;exitDy=0;entryX=0.574;entryY=-0.007;entryDx=0;entryDy=0;startArrow=none;entryPerimeter=0;" edge="1" parent="1" source="206" target="132">
                    <mxGeometry width="50" height="50" relative="1" as="geometry">
                        <mxPoint x="890" y="505" as="sourcePoint"/>
                        <mxPoint x="940" y="455" as="targetPoint"/>
                    </mxGeometry>
                </mxCell>
                <mxCell id="186" value="" style="endArrow=classic;html=1;entryX=0.702;entryY=1;entryDx=0;entryDy=0;exitX=0.5;exitY=0;exitDx=0;exitDy=0;startArrow=none;entryPerimeter=0;" edge="1" parent="1" source="208" target="159">
                    <mxGeometry width="50" height="50" relative="1" as="geometry">
                        <mxPoint x="740" y="548" as="sourcePoint"/>
                        <mxPoint x="940" y="455" as="targetPoint"/>
                    </mxGeometry>
                </mxCell>
                <mxCell id="187" value="" style="endArrow=classic;html=1;entryX=0.75;entryY=1;entryDx=0;entryDy=0;exitX=1;exitY=0.5;exitDx=0;exitDy=0;" edge="1" parent="1" source="125" target="141">
                    <mxGeometry width="50" height="50" relative="1" as="geometry">
                        <mxPoint x="180" y="535" as="sourcePoint"/>
                        <mxPoint x="230" y="485" as="targetPoint"/>
                        <Array as="points">
                            <mxPoint x="-300" y="436"/>
                        </Array>
                    </mxGeometry>
                </mxCell>
                <mxCell id="188" style="edgeStyle=none;html=1;exitX=0.5;exitY=0;exitDx=0;exitDy=0;entryX=0;entryY=0.5;entryDx=0;entryDy=0;" edge="1" parent="1" source="191" target="129">
                    <mxGeometry relative="1" as="geometry"/>
                </mxCell>
                <mxCell id="189" style="edgeStyle=none;html=1;exitX=0;exitY=0.5;exitDx=0;exitDy=0;entryX=0;entryY=0.5;entryDx=0;entryDy=0;" edge="1" parent="1" source="191" target="147">
                    <mxGeometry relative="1" as="geometry">
                        <Array as="points">
                            <mxPoint x="1130" y="114"/>
                        </Array>
                    </mxGeometry>
                </mxCell>
                <mxCell id="190" style="edgeStyle=none;html=1;exitX=0.75;exitY=0;exitDx=0;exitDy=0;entryX=1;entryY=0.5;entryDx=0;entryDy=0;" edge="1" parent="1" source="191" target="164">
                    <mxGeometry relative="1" as="geometry">
                        <Array as="points">
                            <mxPoint x="1230" y="473"/>
                            <mxPoint x="1230" y="835"/>
                        </Array>
                    </mxGeometry>
                </mxCell>
                <mxCell id="191" value="execute&lt;br&gt;_&lt;br&gt;memory" style="rounded=0;whiteSpace=wrap;html=1;direction=south;" vertex="1" parent="1">
                    <mxGeometry x="1090" y="285.01" width="80" height="250" as="geometry"/>
                </mxCell>
                <mxCell id="192" style="edgeStyle=none;html=1;exitX=0.5;exitY=0;exitDx=0;exitDy=0;entryX=0;entryY=0.5;entryDx=0;entryDy=0;" edge="1" parent="1" source="194" target="162">
                    <mxGeometry relative="1" as="geometry"/>
                </mxCell>
                <mxCell id="193" style="edgeStyle=none;html=1;exitX=0.75;exitY=0;exitDx=0;exitDy=0;entryX=1;entryY=0.5;entryDx=0;entryDy=0;" edge="1" parent="1" source="194" target="166">
                    <mxGeometry relative="1" as="geometry">
                        <Array as="points">
                            <mxPoint x="1870" y="473"/>
                            <mxPoint x="1870" y="835"/>
                        </Array>
                    </mxGeometry>
                </mxCell>
                <mxCell id="194" value="memory&lt;br&gt;_&lt;br&gt;writeback" style="rounded=0;whiteSpace=wrap;html=1;direction=south;" vertex="1" parent="1">
                    <mxGeometry x="1710" y="285" width="80" height="250" as="geometry"/>
                </mxCell>
                <mxCell id="195" value="" style="endArrow=classic;html=1;exitX=1;exitY=0.25;exitDx=0;exitDy=0;entryX=1;entryY=0.5;entryDx=0;entryDy=0;" edge="1" parent="1" source="125" target="141">
                    <mxGeometry width="50" height="50" relative="1" as="geometry">
                        <mxPoint x="150" y="575" as="sourcePoint"/>
                        <mxPoint x="200" y="525" as="targetPoint"/>
                    </mxGeometry>
                </mxCell>
                <mxCell id="196" value="" style="endArrow=classic;html=1;entryX=1;entryY=0.25;entryDx=0;entryDy=0;" edge="1" parent="1" target="125">
                    <mxGeometry width="50" height="50" relative="1" as="geometry">
                        <mxPoint x="1006" y="670" as="sourcePoint"/>
                        <mxPoint x="150" y="525" as="targetPoint"/>
                        <Array as="points">
                            <mxPoint x="1006" y="775"/>
                            <mxPoint x="-237" y="775"/>
                        </Array>
                    </mxGeometry>
                </mxCell>
                <mxCell id="197" style="edgeStyle=none;html=1;exitX=0.5;exitY=0;exitDx=0;exitDy=0;entryX=1;entryY=0.5;entryDx=0;entryDy=0;" edge="1" parent="1" source="198" target="129">
                    <mxGeometry relative="1" as="geometry"/>
                </mxCell>
                <mxCell id="198" value="regdata" style="shape=trapezoid;perimeter=trapezoidPerimeter;whiteSpace=wrap;html=1;fixedSize=1;direction=south;" vertex="1" parent="1">
                    <mxGeometry x="1480" y="325" width="60" height="180" as="geometry"/>
                </mxCell>
                <mxCell id="199" value="" style="endArrow=classic;html=1;exitX=0;exitY=0.75;exitDx=0;exitDy=0;entryX=0.859;entryY=1.005;entryDx=0;entryDy=0;entryPerimeter=0;" edge="1" parent="1" source="129" target="198">
                    <mxGeometry width="50" height="50" relative="1" as="geometry">
                        <mxPoint x="1420" y="535" as="sourcePoint"/>
                        <mxPoint x="1470" y="485" as="targetPoint"/>
                    </mxGeometry>
                </mxCell>
                <mxCell id="200" value="" style="endArrow=classic;html=1;exitX=0.217;exitY=-0.003;exitDx=0;exitDy=0;exitPerimeter=0;entryX=0.25;entryY=1;entryDx=0;entryDy=0;" edge="1" parent="1" source="129" target="198">
                    <mxGeometry width="50" height="50" relative="1" as="geometry">
                        <mxPoint x="1420" y="385" as="sourcePoint"/>
                        <mxPoint x="1470" y="335" as="targetPoint"/>
                        <Array as="points">
                            <mxPoint x="1371" y="370"/>
                        </Array>
                    </mxGeometry>
                </mxCell>
                <mxCell id="201" value="" style="endArrow=classic;html=1;exitX=0.002;exitY=0.916;exitDx=0;exitDy=0;exitPerimeter=0;entryX=1;entryY=0.5;entryDx=0;entryDy=0;" edge="1" parent="1" source="129" target="198">
                    <mxGeometry width="50" height="50" relative="1" as="geometry">
                        <mxPoint x="1580" y="385" as="sourcePoint"/>
                        <mxPoint x="1630" y="335" as="targetPoint"/>
                        <Array as="points">
                            <mxPoint x="1510" y="526"/>
                        </Array>
                    </mxGeometry>
                </mxCell>
                <mxCell id="202" style="edgeStyle=none;html=1;exitX=0.5;exitY=0;exitDx=0;exitDy=0;entryX=0.25;entryY=1;entryDx=0;entryDy=0;" edge="1" parent="1" source="203" target="157">
                    <mxGeometry relative="1" as="geometry"/>
                </mxCell>
                <mxCell id="203" value="" style="shape=trapezoid;perimeter=trapezoidPerimeter;whiteSpace=wrap;html=1;fixedSize=1;direction=south;" vertex="1" parent="1">
                    <mxGeometry x="700" y="205" width="50" height="74.99" as="geometry"/>
                </mxCell>
                <mxCell id="204" style="edgeStyle=none;html=1;exitX=0.5;exitY=0;exitDx=0;exitDy=0;entryX=0.75;entryY=1;entryDx=0;entryDy=0;" edge="1" parent="1" source="205" target="157">
                    <mxGeometry relative="1" as="geometry"/>
                </mxCell>
                <mxCell id="205" value="" style="shape=trapezoid;perimeter=trapezoidPerimeter;whiteSpace=wrap;html=1;fixedSize=1;direction=south;" vertex="1" parent="1">
                    <mxGeometry x="700" y="295.01" width="50" height="74.99" as="geometry"/>
                </mxCell>
                <mxCell id="206" value="" style="shape=trapezoid;perimeter=trapezoidPerimeter;whiteSpace=wrap;html=1;fixedSize=1;direction=south;" vertex="1" parent="1">
                    <mxGeometry x="730" y="409.52" width="50" height="74.99" as="geometry"/>
                </mxCell>
                <mxCell id="207" value="" style="endArrow=none;html=1;exitX=0.527;exitY=0.997;exitDx=0;exitDy=0;exitPerimeter=0;entryX=0.25;entryY=1;entryDx=0;entryDy=0;" edge="1" parent="1" source="132" target="206">
                    <mxGeometry width="50" height="50" relative="1" as="geometry">
                        <mxPoint x="618.3599999999997" y="495.58836999999994" as="sourcePoint"/>
                        <mxPoint x="900" y="502.5" as="targetPoint"/>
                    </mxGeometry>
                </mxCell>
                <mxCell id="208" value="" style="shape=trapezoid;perimeter=trapezoidPerimeter;whiteSpace=wrap;html=1;fixedSize=1;direction=south;" vertex="1" parent="1">
                    <mxGeometry x="700" y="567.2" width="50" height="74.99" as="geometry"/>
                </mxCell>
                <mxCell id="209" value="" style="endArrow=none;html=1;exitX=0.911;exitY=1.002;exitDx=0;exitDy=0;exitPerimeter=0;entryX=0.75;entryY=1;entryDx=0;entryDy=0;" edge="1" parent="1" source="132" target="208">
                    <mxGeometry width="50" height="50" relative="1" as="geometry">
                        <mxPoint x="620.4099999999994" y="552.2872899999993" as="sourcePoint"/>
                        <mxPoint x="670" y="625" as="targetPoint"/>
                    </mxGeometry>
                </mxCell>
                <mxCell id="210" value="" style="endArrow=classic;html=1;exitX=0.14;exitY=0.996;exitDx=0;exitDy=0;exitPerimeter=0;entryX=0.25;entryY=1;entryDx=0;entryDy=0;" edge="1" parent="1" source="132" target="203">
                    <mxGeometry width="50" height="50" relative="1" as="geometry">
                        <mxPoint x="1070" y="565" as="sourcePoint"/>
                        <mxPoint x="1120" y="515" as="targetPoint"/>
                    </mxGeometry>
                </mxCell>
                <mxCell id="211" value="" style="endArrow=classic;html=1;exitX=0.218;exitY=0.996;exitDx=0;exitDy=0;exitPerimeter=0;entryX=0.75;entryY=1;entryDx=0;entryDy=0;" edge="1" parent="1" source="132" target="203">
                    <mxGeometry width="50" height="50" relative="1" as="geometry">
                        <mxPoint x="1070" y="565" as="sourcePoint"/>
                        <mxPoint x="1120" y="515" as="targetPoint"/>
                    </mxGeometry>
                </mxCell>
                <mxCell id="212" value="" style="endArrow=classic;html=1;exitX=0.318;exitY=0.997;exitDx=0;exitDy=0;exitPerimeter=0;entryX=0.25;entryY=1;entryDx=0;entryDy=0;" edge="1" parent="1" source="132" target="205">
                    <mxGeometry width="50" height="50" relative="1" as="geometry">
                        <mxPoint x="630.4099999999994" y="237.84346999999934" as="sourcePoint"/>
                        <mxPoint x="710" y="233.74749999999995" as="targetPoint"/>
                    </mxGeometry>
                </mxCell>
                <mxCell id="213" value="" style="endArrow=classic;html=1;exitX=0.374;exitY=1.006;exitDx=0;exitDy=0;exitPerimeter=0;entryX=0.627;entryY=1.032;entryDx=0;entryDy=0;entryPerimeter=0;" edge="1" parent="1" source="132" target="205">
                    <mxGeometry width="50" height="50" relative="1" as="geometry">
                        <mxPoint x="640.4099999999994" y="247.84346999999934" as="sourcePoint"/>
                        <mxPoint x="720" y="243.74749999999995" as="targetPoint"/>
                    </mxGeometry>
                </mxCell>
                <mxCell id="214" value="" style="endArrow=classic;html=1;exitX=0.833;exitY=0.998;exitDx=0;exitDy=0;exitPerimeter=0;entryX=0.25;entryY=1;entryDx=0;entryDy=0;" edge="1" parent="1" source="132" target="208">
                    <mxGeometry width="50" height="50" relative="1" as="geometry">
                        <mxPoint x="1070" y="565" as="sourcePoint"/>
                        <mxPoint x="1120" y="515" as="targetPoint"/>
                    </mxGeometry>
                </mxCell>
                <mxCell id="215" value="" style="endArrow=classic;html=1;exitX=0.75;exitY=1;exitDx=0;exitDy=0;entryX=0.316;entryY=1.008;entryDx=0;entryDy=0;entryPerimeter=0;" edge="1" parent="1" source="132" target="159">
                    <mxGeometry width="50" height="50" relative="1" as="geometry">
                        <mxPoint x="1070" y="565" as="sourcePoint"/>
                        <mxPoint x="1120" y="515" as="targetPoint"/>
                    </mxGeometry>
                </mxCell>
                <mxCell id="219" value="pc" style="text;html=1;align=center;verticalAlign=middle;resizable=0;points=[];autosize=1;strokeColor=none;fillColor=none;" vertex="1" parent="1">
                    <mxGeometry x="-515" y="259.99" width="30" height="20" as="geometry"/>
                </mxCell>
                <mxCell id="220" value="pcnext" style="text;html=1;align=center;verticalAlign=middle;resizable=0;points=[];autosize=1;strokeColor=none;fillColor=none;" vertex="1" parent="1">
                    <mxGeometry x="-630" y="380" width="50" height="20" as="geometry"/>
                </mxCell>
                <mxCell id="221" value="stall" style="text;html=1;align=center;verticalAlign=middle;resizable=0;points=[];autosize=1;strokeColor=none;fillColor=none;" vertex="1" parent="1">
                    <mxGeometry x="-515" y="530.01" width="40" height="20" as="geometry"/>
                </mxCell>
                <mxCell id="222" value="pc" style="text;html=1;align=center;verticalAlign=middle;resizable=0;points=[];autosize=1;strokeColor=none;fillColor=none;" vertex="1" parent="1">
                    <mxGeometry x="-470" y="380" width="30" height="20" as="geometry"/>
                </mxCell>
                <mxCell id="223" value="instruction" style="text;html=1;align=center;verticalAlign=middle;resizable=0;points=[];autosize=1;strokeColor=none;fillColor=none;" vertex="1" parent="1">
                    <mxGeometry x="-360" y="239.99" width="70" height="20" as="geometry"/>
                </mxCell>
                <mxCell id="224" value="pcplus" style="text;html=1;strokeColor=none;fillColor=none;align=center;verticalAlign=middle;whiteSpace=wrap;rounded=0;" vertex="1" parent="1">
                    <mxGeometry x="-340" y="357.82" width="60" height="30" as="geometry"/>
                </mxCell>
                <mxCell id="225" value="pcbranch" style="text;html=1;strokeColor=none;fillColor=none;align=center;verticalAlign=middle;whiteSpace=wrap;rounded=0;" vertex="1" parent="1">
                    <mxGeometry x="-360" y="462.19" width="60" height="30" as="geometry"/>
                </mxCell>
                <mxCell id="226" value="jump" style="text;html=1;strokeColor=none;fillColor=none;align=center;verticalAlign=middle;whiteSpace=wrap;rounded=0;" vertex="1" parent="1">
                    <mxGeometry x="-250" y="465" width="60" height="30" as="geometry"/>
                </mxCell>
                <mxCell id="227" value="pcsclected" style="text;html=1;strokeColor=none;fillColor=none;align=center;verticalAlign=middle;whiteSpace=wrap;rounded=0;" vertex="1" parent="1">
                    <mxGeometry x="-413" y="630.0100000000001" width="60" height="30" as="geometry"/>
                </mxCell>
                <mxCell id="228" value="dataF" style="text;html=1;align=center;verticalAlign=middle;resizable=0;points=[];autosize=1;strokeColor=none;fillColor=none;" vertex="1" parent="1">
                    <mxGeometry x="-175" y="387.82" width="50" height="20" as="geometry"/>
                </mxCell>
                <mxCell id="229" value="dataF_out" style="text;html=1;align=center;verticalAlign=middle;resizable=0;points=[];autosize=1;strokeColor=none;fillColor=none;" vertex="1" parent="1">
                    <mxGeometry x="-20" y="387.82" width="70" height="20" as="geometry"/>
                </mxCell>
                <mxCell id="230" value="instruction" style="text;html=1;strokeColor=none;fillColor=none;align=center;verticalAlign=middle;whiteSpace=wrap;rounded=0;" vertex="1" parent="1">
                    <mxGeometry x="100" y="249.99" width="60" height="30" as="geometry"/>
                </mxCell>
                <mxCell id="231" value="immediate" style="text;html=1;strokeColor=none;fillColor=none;align=center;verticalAlign=middle;whiteSpace=wrap;rounded=0;" vertex="1" parent="1">
                    <mxGeometry x="230" y="475" width="60" height="30" as="geometry"/>
                </mxCell>
                <mxCell id="232" value="rd1 rd2" style="text;html=1;strokeColor=none;fillColor=none;align=center;verticalAlign=middle;whiteSpace=wrap;rounded=0;" vertex="1" parent="1">
                    <mxGeometry x="160" y="570" width="60" height="30" as="geometry"/>
                </mxCell>
                <mxCell id="233" value="src" style="text;html=1;strokeColor=none;fillColor=none;align=center;verticalAlign=middle;whiteSpace=wrap;rounded=0;" vertex="1" parent="1">
                    <mxGeometry x="384" y="520.01" width="60" height="30" as="geometry"/>
                </mxCell>
                <mxCell id="234" value="ctl" style="text;html=1;strokeColor=none;fillColor=none;align=center;verticalAlign=middle;whiteSpace=wrap;rounded=0;" vertex="1" parent="1">
                    <mxGeometry x="350" y="255.01" width="60" height="30" as="geometry"/>
                </mxCell>
                <mxCell id="235" value="ra1 ra2" style="text;html=1;align=center;verticalAlign=middle;resizable=0;points=[];autosize=1;strokeColor=none;fillColor=none;" vertex="1" parent="1">
                    <mxGeometry x="215" y="120" width="50" height="20" as="geometry"/>
                </mxCell>
                <mxCell id="236" value="rd1 rd2" style="text;html=1;align=center;verticalAlign=middle;resizable=0;points=[];autosize=1;strokeColor=none;fillColor=none;" vertex="1" parent="1">
                    <mxGeometry x="100" y="120" width="50" height="20" as="geometry"/>
                </mxCell>
                <mxCell id="237" value="regdata&lt;br&gt;dst&lt;br&gt;regwrite" style="text;html=1;align=center;verticalAlign=middle;resizable=0;points=[];autosize=1;strokeColor=none;fillColor=none;" vertex="1" parent="1">
                    <mxGeometry x="220" y="-60" width="60" height="50" as="geometry"/>
                </mxCell>
                <mxCell id="238" value="dataD" style="text;html=1;align=center;verticalAlign=middle;resizable=0;points=[];autosize=1;strokeColor=none;fillColor=none;" vertex="1" parent="1">
                    <mxGeometry x="440" y="387.82" width="50" height="20" as="geometry"/>
                </mxCell>
                <mxCell id="239" value="dataD_out" style="text;html=1;align=center;verticalAlign=middle;resizable=0;points=[];autosize=1;strokeColor=none;fillColor=none;" vertex="1" parent="1">
                    <mxGeometry x="560" y="387.82" width="70" height="20" as="geometry"/>
                </mxCell>
                <mxCell id="242" value="srca" style="text;html=1;strokeColor=none;fillColor=none;align=center;verticalAlign=middle;whiteSpace=wrap;rounded=0;" vertex="1" parent="1">
                    <mxGeometry x="630" y="195.02" width="60" height="30" as="geometry"/>
                </mxCell>
                <mxCell id="243" value="forward1" style="text;html=1;strokeColor=none;fillColor=none;align=center;verticalAlign=middle;whiteSpace=wrap;rounded=0;" vertex="1" parent="1">
                    <mxGeometry x="630" y="234.99" width="60" height="30" as="geometry"/>
                </mxCell>
                <mxCell id="244" value="srcb" style="text;html=1;strokeColor=none;fillColor=none;align=center;verticalAlign=middle;whiteSpace=wrap;rounded=0;" vertex="1" parent="1">
                    <mxGeometry x="630" y="285.01" width="60" height="30" as="geometry"/>
                </mxCell>
                <mxCell id="245" value="forward2" style="text;html=1;strokeColor=none;fillColor=none;align=center;verticalAlign=middle;whiteSpace=wrap;rounded=0;" vertex="1" parent="1">
                    <mxGeometry x="630" y="315.01" width="60" height="30" as="geometry"/>
                </mxCell>
                <mxCell id="246" value="srca" style="text;html=1;strokeColor=none;fillColor=none;align=center;verticalAlign=middle;whiteSpace=wrap;rounded=0;" vertex="1" parent="1">
                    <mxGeometry x="780" y="209.99" width="60" height="30" as="geometry"/>
                </mxCell>
                <mxCell id="247" value="srcb" style="text;html=1;strokeColor=none;fillColor=none;align=center;verticalAlign=middle;whiteSpace=wrap;rounded=0;" vertex="1" parent="1">
                    <mxGeometry x="770" y="295" width="60" height="30" as="geometry"/>
                </mxCell>
                <mxCell id="248" value="Text" style="text;html=1;strokeColor=none;fillColor=none;align=center;verticalAlign=middle;whiteSpace=wrap;rounded=0;" vertex="1" parent="1">
                    <mxGeometry x="870" y="290" width="60" height="30" as="geometry"/>
                </mxCell>
                <mxCell id="249" value="alu_func" style="text;html=1;strokeColor=none;fillColor=none;align=center;verticalAlign=middle;whiteSpace=wrap;rounded=0;" vertex="1" parent="1">
                    <mxGeometry x="900" y="179.38" width="60" height="30" as="geometry"/>
                </mxCell>
                <mxCell id="250" value="result" style="text;html=1;strokeColor=none;fillColor=none;align=center;verticalAlign=middle;whiteSpace=wrap;rounded=0;" vertex="1" parent="1">
                    <mxGeometry x="940" y="249.99" width="60" height="30" as="geometry"/>
                </mxCell>
                <mxCell id="251" value="mux" style="text;html=1;strokeColor=none;fillColor=none;align=center;verticalAlign=middle;whiteSpace=wrap;rounded=0;" vertex="1" parent="1">
                    <mxGeometry x="695" y="227.49" width="60" height="30" as="geometry"/>
                </mxCell>
                <mxCell id="252" value="mux" style="text;html=1;strokeColor=none;fillColor=none;align=center;verticalAlign=middle;whiteSpace=wrap;rounded=0;" vertex="1" parent="1">
                    <mxGeometry x="695" y="589.7" width="60" height="30" as="geometry"/>
                </mxCell>
                <mxCell id="253" value="mux" style="text;html=1;strokeColor=none;fillColor=none;align=center;verticalAlign=middle;whiteSpace=wrap;rounded=0;" vertex="1" parent="1">
                    <mxGeometry x="725" y="432.01" width="60" height="30" as="geometry"/>
                </mxCell>
                <mxCell id="254" value="mux" style="text;html=1;strokeColor=none;fillColor=none;align=center;verticalAlign=middle;whiteSpace=wrap;rounded=0;" vertex="1" parent="1">
                    <mxGeometry x="695" y="320" width="60" height="30" as="geometry"/>
                </mxCell>
                <mxCell id="255" value="memdata" style="text;html=1;strokeColor=none;fillColor=none;align=center;verticalAlign=middle;whiteSpace=wrap;rounded=0;" vertex="1" parent="1">
                    <mxGeometry x="640" y="402.01" width="60" height="30" as="geometry"/>
                </mxCell>
                <mxCell id="259" value="memdata" style="text;html=1;strokeColor=none;fillColor=none;align=center;verticalAlign=middle;whiteSpace=wrap;rounded=0;" vertex="1" parent="1">
                    <mxGeometry x="880" y="420" width="60" height="30" as="geometry"/>
                </mxCell>
                <mxCell id="260" value="pc immediate" style="text;html=1;strokeColor=none;fillColor=none;align=center;verticalAlign=middle;whiteSpace=wrap;rounded=0;" vertex="1" parent="1">
                    <mxGeometry x="660" y="510" width="120" height="30" as="geometry"/>
                </mxCell>
                <mxCell id="261" value="pcdata" style="text;html=1;strokeColor=none;fillColor=none;align=center;verticalAlign=middle;whiteSpace=wrap;rounded=0;" vertex="1" parent="1">
                    <mxGeometry x="630" y="559.7" width="60" height="30" as="geometry"/>
                </mxCell>
                <mxCell id="262" value="forward1" style="text;html=1;strokeColor=none;fillColor=none;align=center;verticalAlign=middle;whiteSpace=wrap;rounded=0;" vertex="1" parent="1">
                    <mxGeometry x="630" y="600" width="60" height="30" as="geometry"/>
                </mxCell>
                <mxCell id="263" value="" style="endArrow=classic;html=1;exitX=0.612;exitY=0.998;exitDx=0;exitDy=0;exitPerimeter=0;entryX=0.75;entryY=1;entryDx=0;entryDy=0;" edge="1" parent="1" source="132" target="206">
                    <mxGeometry width="50" height="50" relative="1" as="geometry">
                        <mxPoint x="940" y="410" as="sourcePoint"/>
                        <mxPoint x="990" y="360" as="targetPoint"/>
                    </mxGeometry>
                </mxCell>
                <mxCell id="264" value="forward2" style="text;html=1;strokeColor=none;fillColor=none;align=center;verticalAlign=middle;whiteSpace=wrap;rounded=0;" vertex="1" parent="1">
                    <mxGeometry x="640" y="440.01" width="60" height="30" as="geometry"/>
                </mxCell>
                <mxCell id="265" value="pcbranch jump" style="text;html=1;strokeColor=none;fillColor=none;align=center;verticalAlign=middle;whiteSpace=wrap;rounded=0;" vertex="1" parent="1">
                    <mxGeometry x="940" y="540" width="60" height="30" as="geometry"/>
                </mxCell>
                <mxCell id="266" value="dataE" style="text;html=1;align=center;verticalAlign=middle;resizable=0;points=[];autosize=1;strokeColor=none;fillColor=none;" vertex="1" parent="1">
                    <mxGeometry x="1030" y="389.52" width="50" height="20" as="geometry"/>
                </mxCell>
                <mxCell id="267" value="dataE_out" style="text;html=1;align=center;verticalAlign=middle;resizable=0;points=[];autosize=1;strokeColor=none;fillColor=none;" vertex="1" parent="1">
                    <mxGeometry x="1200" y="387.82" width="70" height="20" as="geometry"/>
                </mxCell>
                <mxCell id="268" value="address" style="text;html=1;align=center;verticalAlign=middle;resizable=0;points=[];autosize=1;strokeColor=none;fillColor=none;" vertex="1" parent="1">
                    <mxGeometry x="1130" y="189.99" width="60" height="20" as="geometry"/>
                </mxCell>
                <mxCell id="269" value="data" style="text;html=1;align=center;verticalAlign=middle;resizable=0;points=[];autosize=1;strokeColor=none;fillColor=none;" vertex="1" parent="1">
                    <mxGeometry x="1320" y="210" width="40" height="20" as="geometry"/>
                </mxCell>
                <mxCell id="270" value="memdata &lt;br&gt;memwrite&lt;br&gt;&amp;nbsp;memread" style="text;html=1;align=center;verticalAlign=middle;resizable=0;points=[];autosize=1;strokeColor=none;fillColor=none;" vertex="1" parent="1">
                    <mxGeometry x="1520" y="199.99" width="70" height="50" as="geometry"/>
                </mxCell>
                <mxCell id="272" value="memreaddata" style="text;html=1;strokeColor=none;fillColor=none;align=center;verticalAlign=middle;whiteSpace=wrap;rounded=0;" vertex="1" parent="1">
                    <mxGeometry x="1400" y="340" width="60" height="30" as="geometry"/>
                </mxCell>
                <mxCell id="273" value="regdata" style="text;html=1;strokeColor=none;fillColor=none;align=center;verticalAlign=middle;whiteSpace=wrap;rounded=0;" vertex="1" parent="1">
                    <mxGeometry x="1370" y="454.5" width="60" height="30" as="geometry"/>
                </mxCell>
                <mxCell id="274" value="regdata" style="text;html=1;strokeColor=none;fillColor=none;align=center;verticalAlign=middle;whiteSpace=wrap;rounded=0;" vertex="1" parent="1">
                    <mxGeometry x="1540" y="384.52" width="60" height="30" as="geometry"/>
                </mxCell>
                <mxCell id="275" value="op" style="text;html=1;strokeColor=none;fillColor=none;align=center;verticalAlign=middle;whiteSpace=wrap;rounded=0;" vertex="1" parent="1">
                    <mxGeometry x="1360" y="500.01" width="60" height="30" as="geometry"/>
                </mxCell>
                <mxCell id="276" value="dst&lt;br&gt;data&lt;br&gt;regwrite" style="text;html=1;align=center;verticalAlign=middle;resizable=0;points=[];autosize=1;strokeColor=none;fillColor=none;" vertex="1" parent="1">
                    <mxGeometry x="1230" y="650.01" width="60" height="50" as="geometry"/>
                </mxCell>
                <mxCell id="277" value="valid&lt;br&gt;dst&lt;br&gt;data" style="text;html=1;align=center;verticalAlign=middle;resizable=0;points=[];autosize=1;strokeColor=none;fillColor=none;" vertex="1" parent="1">
                    <mxGeometry x="1130" y="960" width="40" height="50" as="geometry"/>
                </mxCell>
                <mxCell id="278" value="valid&lt;br&gt;dst&lt;br&gt;data" style="text;html=1;align=center;verticalAlign=middle;resizable=0;points=[];autosize=1;strokeColor=none;fillColor=none;" vertex="1" parent="1">
                    <mxGeometry x="2012.5" y="960" width="40" height="50" as="geometry"/>
                </mxCell>
                <mxCell id="279" value="valid&lt;br&gt;dst&lt;br&gt;data" style="text;html=1;align=center;verticalAlign=middle;resizable=0;points=[];autosize=1;strokeColor=none;fillColor=none;" vertex="1" parent="1">
                    <mxGeometry x="1780" y="960" width="40" height="50" as="geometry"/>
                </mxCell>
                <mxCell id="280" value="dst&lt;br&gt;data&lt;br&gt;regwrite" style="text;html=1;align=center;verticalAlign=middle;resizable=0;points=[];autosize=1;strokeColor=none;fillColor=none;" vertex="1" parent="1">
                    <mxGeometry x="2120" y="710.01" width="60" height="50" as="geometry"/>
                </mxCell>
                <mxCell id="281" value="dst&lt;br&gt;data&lt;br&gt;regwrite" style="text;html=1;align=center;verticalAlign=middle;resizable=0;points=[];autosize=1;strokeColor=none;fillColor=none;" vertex="1" parent="1">
                    <mxGeometry x="1872.5" y="710.01" width="60" height="50" as="geometry"/>
                </mxCell>
                <mxCell id="282" value="clear&lt;br&gt;stall" style="text;html=1;align=center;verticalAlign=middle;resizable=0;points=[];autosize=1;strokeColor=none;fillColor=none;" vertex="1" parent="1">
                    <mxGeometry x="-70" y="570" width="40" height="30" as="geometry"/>
                </mxCell>
                <mxCell id="283" value="clear&lt;br&gt;stall" style="text;html=1;align=center;verticalAlign=middle;resizable=0;points=[];autosize=1;strokeColor=none;fillColor=none;" vertex="1" parent="1">
                    <mxGeometry x="530" y="710.01" width="40" height="30" as="geometry"/>
                </mxCell>
                <mxCell id="284" value="clear" style="text;html=1;align=center;verticalAlign=middle;resizable=0;points=[];autosize=1;strokeColor=none;fillColor=none;" vertex="1" parent="1">
                    <mxGeometry x="1130" y="559.7" width="40" height="20" as="geometry"/>
                </mxCell>
                <mxCell id="287" value="jump pcbrach" style="text;html=1;align=center;verticalAlign=middle;resizable=0;points=[];autosize=1;strokeColor=none;fillColor=none;" vertex="1" parent="1">
                    <mxGeometry x="160" y="750" width="90" height="20" as="geometry"/>
                </mxCell>
                <mxCell id="288" value="stall clear" style="text;html=1;align=center;verticalAlign=middle;resizable=0;points=[];autosize=1;strokeColor=none;fillColor=none;" vertex="1" parent="1">
                    <mxGeometry x="830" y="1190" width="70" height="20" as="geometry"/>
                </mxCell>
                <mxCell id="289" value="forward&lt;br&gt;mux" style="text;html=1;align=center;verticalAlign=middle;resizable=0;points=[];autosize=1;strokeColor=none;fillColor=none;" vertex="1" parent="1">
                    <mxGeometry x="725" y="900" width="60" height="30" as="geometry"/>
                </mxCell>
                <mxCell id="291" value="ra1 ra2" style="text;html=1;align=center;verticalAlign=middle;resizable=0;points=[];autosize=1;strokeColor=none;fillColor=none;" vertex="1" parent="1">
                    <mxGeometry x="935" y="980" width="50" height="20" as="geometry"/>
                </mxCell>
                <mxCell id="292" value="dataM" style="text;html=1;align=center;verticalAlign=middle;resizable=0;points=[];autosize=1;strokeColor=none;fillColor=none;" vertex="1" parent="1">
                    <mxGeometry x="1640" y="384.52" width="50" height="20" as="geometry"/>
                </mxCell>
                <mxCell id="293" value="dataM_out" style="text;html=1;align=center;verticalAlign=middle;resizable=0;points=[];autosize=1;strokeColor=none;fillColor=none;" vertex="1" parent="1">
                    <mxGeometry x="1835" y="380" width="70" height="20" as="geometry"/>
                </mxCell>
                <mxCell id="294" value="dataW" style="text;html=1;align=center;verticalAlign=middle;resizable=0;points=[];autosize=1;strokeColor=none;fillColor=none;" vertex="1" parent="1">
                    <mxGeometry x="1980" y="200.02" width="50" height="20" as="geometry"/>
                </mxCell>
                <mxCell id="295" value="dataW" style="text;html=1;align=center;verticalAlign=middle;resizable=0;points=[];autosize=1;strokeColor=none;fillColor=none;" vertex="1" parent="1">
                    <mxGeometry x="1980" y="525.01" width="50" height="20" as="geometry"/>
                </mxCell>
                <mxCell id="296" value="dataW_out" style="text;html=1;align=center;verticalAlign=middle;resizable=0;points=[];autosize=1;strokeColor=none;fillColor=none;" vertex="1" parent="1">
                    <mxGeometry x="2022.5" y="610.01" width="70" height="20" as="geometry"/>
                </mxCell>
                <mxCell id="298" value="regwrite&lt;br&gt;memread&lt;br&gt;dst" style="text;html=1;align=center;verticalAlign=middle;resizable=0;points=[];autosize=1;strokeColor=none;fillColor=none;" vertex="1" parent="1">
                    <mxGeometry x="1370" y="840" width="70" height="50" as="geometry"/>
                </mxCell>
            </root>
        </mxGraphModel>
    </diagram>
</mxfile>